<svg width="30" height="30" viewBox="0 0 30 30" fill="none" xmlns="http://www.w3.org/2000/svg">
<path d="M15 28.625C18.6136 28.625 22.0791 27.1895 24.6343 24.6343C27.1895 22.0791 28.625 18.6136 28.625 15C28.625 11.3864 27.1895 7.92085 24.6343 5.36567C22.0791 2.81049 18.6136 1.375 15 1.375C11.3864 1.375 7.92085 2.81049 5.36567 5.36567C2.81049 7.92085 1.375 11.3864 1.375 15C1.375 18.6136 2.81049 22.0791 5.36567 24.6343C7.92085 27.1895 11.3864 28.625 15 28.625ZM25.253 25.253C22.5338 27.9723 18.8456 29.5 15 29.5C11.1544 29.5 7.46623 27.9723 4.74695 25.253C2.02767 22.5338 0.5 18.8456 0.5 15C0.5 11.1544 2.02767 7.46623 4.74695 4.74695C7.46623 2.02767 11.1544 0.5 15 0.5C18.8456 0.5 22.5338 2.02767 25.253 4.74695C27.9723 7.46623 29.5 11.1544 29.5 15C29.5 18.8456 27.9723 22.5338 25.253 25.253Z" fill="#262626" stroke="#262626"/>
<path fill-rule="evenodd" clip-rule="evenodd" d="M15.6638 21.2888C15.7511 21.2017 15.8204 21.0983 15.8677 20.9844C15.9149 20.8705 15.9393 20.7484 15.9393 20.6251C15.9393 20.5018 15.9149 20.3797 15.8677 20.2658C15.8204 20.1519 15.7511 20.0484 15.6638 19.9613L10.7007 15.0001L15.6638 10.0388C15.751 9.95167 15.8201 9.84819 15.8673 9.73431C15.9145 9.62042 15.9388 9.49836 15.9388 9.37509C15.9388 9.25182 15.9145 9.12975 15.8673 9.01587C15.8201 8.90198 15.751 8.7985 15.6638 8.71134C15.5767 8.62417 15.4732 8.55503 15.3593 8.50785C15.2454 8.46068 15.1234 8.4364 15.0001 8.4364C14.8768 8.4364 14.7548 8.46068 14.6409 8.50785C14.527 8.55503 14.4235 8.62417 14.3363 8.71134L8.71134 14.3363C8.62403 14.4234 8.55476 14.5269 8.5075 14.6408C8.46024 14.7547 8.43591 14.8768 8.43591 15.0001C8.43591 15.1234 8.46024 15.2455 8.5075 15.3594C8.55476 15.4733 8.62403 15.5768 8.71134 15.6638L14.3363 21.2888C14.4234 21.3761 14.5269 21.4454 14.6408 21.4927C14.7547 21.5399 14.8768 21.5643 15.0001 21.5643C15.1234 21.5643 15.2455 21.5399 15.3594 21.4927C15.4733 21.4454 15.5768 21.3761 15.6638 21.2888Z" fill="#262626"/>
<path fill-rule="evenodd" clip-rule="evenodd" d="M21.5625 15C21.5625 14.7514 21.4637 14.5129 21.2879 14.3371C21.1121 14.1613 20.8736 14.0625 20.625 14.0625H11.25C11.0014 14.0625 10.7629 14.1613 10.5871 14.3371C10.4113 14.5129 10.3125 14.7514 10.3125 15C10.3125 15.2486 10.4113 15.4871 10.5871 15.6629C10.7629 15.8387 11.0014 15.9375 11.25 15.9375H20.625C20.8736 15.9375 21.1121 15.8387 21.2879 15.6629C21.4637 15.4871 21.5625 15.2486 21.5625 15Z" fill="#262626"/>
</svg>
