<svg width="43" height="43" viewBox="0 0 43 43" fill="none" xmlns="http://www.w3.org/2000/svg">
<g clip-path="url(#clip0)">
<path d="M39.4165 28.6667C39.0202 28.6667 38.6999 28.9878 38.6999 29.3834V41.5666H33.6833C33.287 41.5666 32.9667 41.8877 32.9667 42.2833C32.9667 42.6788 33.287 42.9999 33.6833 42.9999H39.4166C39.813 42.9999 40.1333 42.6788 40.1333 42.2833V29.3834C40.1332 28.9878 39.8128 28.6667 39.4165 28.6667Z" fill="#F5811F"/>
<path d="M37.2666 35.1167V29.3834C37.2666 28.9878 36.9462 28.6667 36.5499 28.6667H32.25C31.8536 28.6667 31.5333 28.9878 31.5333 29.3834V35.1167C31.5333 35.5122 31.8536 35.8333 32.25 35.8333H36.5499C36.9462 35.8333 37.2666 35.5122 37.2666 35.1167ZM35.8333 34.4H32.9667V30.1H35.8333V34.4Z" fill="#F5811F"/>
<path d="M27.9499 12.1835C28.3462 12.1835 28.6665 11.8624 28.6665 11.4669V7.88355C28.6665 7.48798 28.3462 7.16691 27.9499 7.16691H6.45003C6.05371 7.16691 5.7334 7.48798 5.7334 7.88355V32.9667C5.7334 33.3623 6.05371 33.6833 6.45003 33.6833C6.84635 33.6833 7.16666 33.3623 7.16666 32.9667V31.5334H7.8833C8.27962 31.5334 8.59993 31.2123 8.59993 30.8167C8.59993 30.4212 8.27962 30.1001 7.8833 30.1001H7.16666V25.8001H10.0333V28.6667C10.0333 29.0623 10.3536 29.3834 10.7499 29.3834C11.1462 29.3834 11.4665 29.0623 11.4665 28.6667V25.8001H14.3332C14.7295 25.8001 15.0498 25.4791 15.0498 25.0835C15.4461 25.0835 15.7664 24.7624 15.7664 24.3669V20.0669H18.633C18.633 20.4625 18.9534 20.7835 19.3497 20.7835C19.746 20.7835 20.0663 20.4625 20.0663 20.0669C20.4626 20.0669 20.7829 19.7458 20.7829 19.3503C20.7829 18.9547 20.4626 18.6336 20.0663 18.6336V14.3337H22.9329V15.767C22.9329 16.1626 23.2532 16.4836 23.6496 16.4836C24.0459 16.4836 24.3662 16.1626 24.3662 15.767V14.3335H25.7995C26.1959 14.3335 26.5162 14.0124 26.5162 13.6169C26.5162 13.2213 26.1959 12.9002 25.7995 12.9002H24.3662V8.60026H27.2328V11.4669C27.2332 11.8624 27.5535 12.1835 27.9499 12.1835ZM10.0334 24.3668H7.16666V20.0668H10.0333V24.3668H10.0334ZM10.0334 18.6335H7.16666V14.3335H10.0333V18.6335H10.0334ZM10.0334 12.9001H7.16666V8.60018H10.0333V12.9001H10.0334ZM14.3333 24.3668H11.4667V20.0668H14.3333V24.3668ZM14.3333 18.6335H11.4667V14.3335H14.3333V18.6335ZM14.3333 12.9001H11.4667V8.60018H14.3333V12.9001ZM18.6333 18.6335H15.7667V14.3335H18.6333V18.6335ZM18.6333 12.9001H15.7667V8.60018H18.6333V12.9001ZM22.9333 12.9001H20.0666V8.60018H22.9333V12.9001Z" fill="#F5811F"/>
<path d="M3.58345 36.55C3.97977 36.55 4.30009 36.2289 4.30009 35.8333V5.73356H9.31669C9.713 5.73356 10.0333 5.4125 10.0333 5.01693V2.86695H15.0499C15.4462 2.86695 15.7666 2.54588 15.7666 2.15032V1.4336H18.6332V2.15023C18.6332 2.54579 18.9535 2.86686 19.3498 2.86686H24.3664V4.30021H12.1834C11.7871 4.30021 11.4668 4.62128 11.4668 5.01685C11.4668 5.41241 11.7871 5.73348 12.1834 5.73348H30.0999V8.6001C30.0999 8.99566 30.4202 9.31673 30.8165 9.31673C31.2128 9.31673 31.5331 8.99566 31.5331 8.6001V5.01693C31.5331 4.62137 31.2128 4.3003 30.8165 4.3003H25.7999V2.15032C25.7999 1.75475 25.4796 1.43368 25.0833 1.43368H20.0667V0.716965C20.0667 0.321402 19.7464 0.000331879 19.35 0.000331879H15.0501C14.6538 0.000331879 14.3335 0.321402 14.3335 0.716965V1.4336H9.31685C8.92053 1.4336 8.60022 1.75467 8.60022 2.15023V4.30021H3.58345C3.18713 4.30021 2.86682 4.62128 2.86682 5.01685V35.8333C2.86674 36.2289 3.18713 36.55 3.58345 36.55Z" fill="#F5811F"/>
<path d="M42.2832 15.7668H37.2666V15.0502C37.2666 14.6546 36.9463 14.3336 36.55 14.3336H33.6834C33.2871 14.3336 32.9667 14.6546 32.9667 15.0502V16.4836C32.9667 16.8791 33.2871 17.2002 33.6834 17.2002C34.0797 17.2002 34.4 16.8791 34.4 16.4836V15.7669H35.8334V16.4836C35.8334 16.8791 36.1537 17.2002 36.55 17.2002H41.5666V26.9368L30.6067 15.9769C30.3265 15.6967 29.8735 15.6967 29.5934 15.9769C29.3131 16.2571 29.3131 16.7101 29.5934 16.9902L41.7765 29.1734C41.9134 29.3103 42.0969 29.3834 42.2832 29.3834C42.3757 29.3834 42.4688 29.3655 42.5577 29.3289C42.8258 29.2178 42.9998 28.9562 42.9998 28.6667V16.4835C42.9998 16.0878 42.6795 15.7668 42.2832 15.7668Z" fill="#F5811F"/>
<path d="M30.8166 40.1332H23.65C23.2537 40.1332 22.9333 40.4543 22.9333 40.8499V41.5665H15.7668V31.5333C15.7668 31.1377 15.4464 30.8167 15.0501 30.8167C14.6538 30.8167 14.3335 31.1377 14.3335 31.5333V42.2832C14.3335 42.6788 14.6538 42.9999 15.0501 42.9999H23.6501C24.0464 42.9999 24.3667 42.6788 24.3667 42.2832V41.5666H30.1V42.2832C30.1 42.6788 30.4203 42.9999 30.8166 42.9999C31.213 42.9999 31.5333 42.6788 31.5333 42.2832V40.8499C31.5333 40.4543 31.2129 40.1332 30.8166 40.1332Z" fill="#F5811F"/>
<path d="M42.7899 0.211127C42.5097 -0.069043 42.0567 -0.069043 41.7765 0.211127L0.210127 41.7775C-0.0700424 42.0578 -0.0700424 42.5107 0.210127 42.7909C0.349876 42.9306 0.533381 43.0008 0.716801 43.0008C0.900305 43.0008 1.08373 42.9306 1.22347 42.7909L42.7899 1.22456C43.07 0.944305 43.07 0.49138 42.7899 0.211127Z" fill="#F5811F"/>
<path d="M29.3833 38.6999C29.7796 38.6999 30.0999 38.3789 30.0999 37.9833V29.3834C30.0999 28.9878 29.7796 28.6667 29.3833 28.6667H25.0833C24.687 28.6667 24.3667 28.9878 24.3667 29.3834V37.9833C24.3667 38.3789 24.687 38.6999 25.0833 38.6999C25.4797 38.6999 25.8 38.3789 25.8 37.9833V30.1H28.6666V32.9666H27.9499C27.5536 32.9666 27.2333 33.2877 27.2333 33.6833C27.2333 34.0788 27.5536 34.3999 27.9499 34.3999H28.6666V37.9832C28.6667 38.3789 28.987 38.6999 29.3833 38.6999Z" fill="#F5811F"/>
<path d="M17.9167 28.6667C17.5204 28.6667 17.2001 28.9878 17.2001 29.3834V35.1167C17.2001 35.5122 17.5204 35.8333 17.9167 35.8333H22.2167C22.613 35.8333 22.9333 35.5122 22.9333 35.1167V29.3834C22.9333 28.9878 22.613 28.6667 22.2167 28.6667H17.9167ZM21.5 34.4H18.6333V30.1H21.5V34.4Z" fill="#F5811F"/>
</g>
<defs>
<clipPath id="clip0">
<rect width="43" height="43" fill="white"/>
</clipPath>
</defs>
</svg>
