<svg width="30" height="29" viewBox="0 0 30 29" fill="none" xmlns="http://www.w3.org/2000/svg">
<path d="M28.1449 13.718C28.2715 13.2961 28.3348 12.8602 28.3348 12.4172C28.3348 11.4223 28.0078 10.466 27.4172 9.68558C27.5438 9.2637 27.607 8.82776 27.607 8.3848C27.607 7.38987 27.2801 6.43362 26.6895 5.65315C26.816 5.23128 26.8793 4.79534 26.8793 4.35237C26.8793 2.53831 25.8 0.903545 24.1266 0.189873C23.8324 0.0630594 23.5152 -0.00157451 23.1949 2.91255e-05H2.0625C1.44023 2.91255e-05 0.9375 0.502764 0.9375 1.12503V13.9219C0.9375 14.5442 1.44023 15.0469 2.0625 15.0469H6.6082L9.62461 25.9735C10.1098 27.7348 11.727 28.9653 13.5551 28.9653C14.5992 28.9653 15.573 28.5504 16.2937 27.791C17.0145 27.0352 17.3836 26.0438 17.3309 24.9996L17.1199 20.6789H25.5539C25.9793 20.6789 26.3941 20.5664 26.7598 20.352C28.1801 19.5258 29.0625 18.0282 29.0625 16.4496C29.0625 15.4547 28.7355 14.4985 28.1449 13.718ZM3.46875 12.5121V2.52776H6.31641V12.5121H3.46875ZM25.5188 18.1512H14.4656L14.8031 25.1262C14.8242 25.5446 14.6379 25.9383 14.2898 26.1985C14.0754 26.3567 13.8117 26.4375 13.548 26.434C13.2112 26.4307 12.8845 26.3183 12.617 26.1135C12.3495 25.9088 12.1556 25.6228 12.0645 25.2985L8.56641 12.6246V2.52776H23.1703C23.5217 2.68525 23.8202 2.9409 24.0297 3.26397C24.2393 3.58704 24.351 3.96377 24.3516 4.34886C24.3516 4.68987 24.2707 5.01331 24.109 5.30862L23.6203 6.20159L24.3902 6.86956C24.6069 7.05725 24.7807 7.28943 24.8996 7.5503C25.0185 7.81117 25.0798 8.09459 25.0793 8.38128C25.0793 8.72229 24.9984 9.04573 24.8367 9.34104L24.348 10.234L25.118 10.902C25.3347 11.0897 25.5084 11.3219 25.6273 11.5827C25.7462 11.8436 25.8075 12.127 25.807 12.4137C25.807 12.7547 25.7262 13.0782 25.5645 13.3735L25.0723 14.27L25.8422 14.9379C26.0589 15.1256 26.2326 15.3578 26.3515 15.6187C26.4704 15.8795 26.5317 16.163 26.5312 16.4496C26.5312 17.1211 26.1445 17.768 25.5188 18.1512Z" fill="#262626"/>
</svg>
