<svg width="93" height="93" viewBox="0 0 93 93" fill="none" xmlns="http://www.w3.org/2000/svg">
<circle cx="46.5" cy="46.5" r="46.5" fill="#005AAB"/>
<path d="M45.971 18C29.963 18 17 30.992 17 47C17 63.008 29.963 76 45.971 76C62.008 76 75 63.008 75 47C75 30.992 62.008 18 45.971 18ZM46 70.2C33.182 70.2 22.8 59.818 22.8 47C22.8 34.182 33.182 23.8 46 23.8C58.818 23.8 69.2 34.182 69.2 47C69.2 59.818 58.818 70.2 46 70.2ZM45.362 32.5H45.188C44.028 32.5 43.1 33.428 43.1 34.588V48.276C43.1 49.291 43.622 50.248 44.521 50.77L56.556 57.991C57.542 58.571 58.818 58.281 59.398 57.295C59.5436 57.0602 59.6405 56.7985 59.6828 56.5254C59.7252 56.2524 59.7122 55.9736 59.6445 55.7057C59.5769 55.4378 59.456 55.1863 59.2891 54.9661C59.1222 54.7459 58.9127 54.5615 58.673 54.424L47.45 47.754V34.588C47.45 33.428 46.522 32.5 45.362 32.5Z" fill="#FBFBFB"/>
</svg>
