<svg width="145" height="147" viewBox="0 0 145 147" fill="none" xmlns="http://www.w3.org/2000/svg">
<ellipse cx="72" cy="73.5" rx="58" ry="58.5" fill="#F5811F"/>
<path d="M144.751 67.3585C144.888 69.0474 144.97 70.7524 144.993 72.4718L143.993 72.4853C143.998 72.823 144 73.1612 144 73.5C144 73.8388 143.998 74.177 143.993 74.5146L144.993 74.5282C144.97 76.2475 144.888 77.9526 144.751 79.6415L143.754 79.5602C143.699 80.2327 143.635 80.9026 143.562 81.5697L144.556 81.6783C144.37 83.3858 144.126 85.0757 143.826 86.7459L142.842 86.5693C142.722 87.2328 142.594 87.8933 142.458 88.5504L143.437 88.7542C143.087 90.434 142.681 92.0926 142.22 93.7279L141.257 93.4567C141.074 94.1054 140.883 94.7503 140.683 95.3914L141.638 95.6892C141.127 97.3253 140.562 98.9367 139.944 100.521L139.012 100.158C138.767 100.785 138.514 101.409 138.252 102.028L139.174 102.417C138.507 103.994 137.788 105.543 137.018 107.061L136.126 106.609C135.821 107.209 135.509 107.805 135.188 108.396L136.067 108.873C135.251 110.377 134.385 111.848 133.471 113.285L132.627 112.749C132.265 113.317 131.896 113.88 131.519 114.437L132.348 114.997C131.391 116.413 130.386 117.794 129.336 119.136L128.548 118.52C128.133 119.051 127.711 119.575 127.281 120.093L128.052 120.731C126.962 122.047 125.828 123.323 124.652 124.558L123.928 123.868C123.463 124.356 122.992 124.837 122.514 125.311L123.219 126.021C122.007 127.223 120.754 128.383 119.462 129.498L118.809 128.741C118.299 129.18 117.783 129.613 117.262 130.038L117.893 130.814C116.571 131.891 115.211 132.923 113.815 133.906L113.239 133.089C112.689 133.476 112.133 133.856 111.571 134.228L112.124 135.062C110.703 136.003 109.248 136.896 107.76 137.737L107.268 136.867C106.682 137.198 106.092 137.52 105.496 137.835L105.964 138.719C104.458 139.515 102.921 140.259 101.355 140.948L100.952 140.033C100.337 140.304 99.7176 140.566 99.0936 140.82L99.4702 141.746C97.894 142.387 96.2905 142.973 94.6618 143.503L94.3526 142.552C93.7139 142.759 93.0712 142.958 92.4248 143.148L92.7065 144.107C91.0758 144.586 89.4215 145.009 87.7457 145.372L87.5337 144.395C86.8777 144.537 86.2184 144.67 85.5559 144.794L85.7398 145.777C84.0716 146.089 82.3833 146.344 80.6772 146.538L80.5641 145.544C79.8975 145.62 79.2281 145.687 78.556 145.744L78.6407 146.74C76.9523 146.884 75.2475 146.969 73.5282 146.993L73.5141 145.993C73.1766 145.998 72.8386 146 72.5 146C72.1614 146 71.8234 145.998 71.4859 145.993L71.4719 146.993C69.7525 146.969 68.0477 146.884 66.3593 146.74L66.444 145.744C65.7719 145.687 65.1025 145.62 64.4359 145.544L64.3228 146.538C62.6167 146.344 60.9284 146.089 59.2602 145.777L59.4441 144.794C58.7816 144.67 58.1223 144.537 57.4663 144.395L57.2543 145.372C55.5785 145.009 53.9242 144.586 52.2935 144.107L52.5753 143.148C51.9288 142.958 51.2861 142.759 50.6474 142.552L50.3382 143.503C48.7095 142.973 47.106 142.387 45.5298 141.746L45.9064 140.82C45.2824 140.566 44.6627 140.304 44.0476 140.033L43.6446 140.948C42.079 140.259 40.5422 139.515 39.0364 138.719L39.5036 137.835C38.9081 137.52 38.3175 137.198 37.732 136.867L37.2398 137.737C35.7522 136.896 34.2968 136.003 32.876 135.062L33.4285 134.228C32.8673 133.856 32.3114 133.476 31.7612 133.089L31.1854 133.906C29.7893 132.923 28.429 131.891 27.1067 130.814L27.7385 130.038C27.2166 129.613 26.7007 129.18 26.1909 128.741L25.5377 129.498C24.2457 128.383 22.9928 127.223 21.7813 126.021L22.4858 125.311C22.008 124.837 21.5368 124.356 21.0723 123.868L20.3483 124.558C19.1719 123.323 18.0378 122.047 16.9483 120.731L17.7185 120.094C17.2893 119.575 16.8671 119.051 16.4521 118.52L15.6645 119.136C14.6143 117.794 13.6094 116.414 12.6522 114.997L13.4807 114.437C13.104 113.88 12.7347 113.317 12.3731 112.749L11.5294 113.286C10.6151 111.848 9.74889 110.377 8.93307 108.873L9.81202 108.396C9.49137 107.805 9.17861 107.209 8.87389 106.609L7.98202 107.061C7.21216 105.543 6.4929 103.994 5.82649 102.417L6.74763 102.028C6.48609 101.409 6.2328 100.785 5.9879 100.158L5.05629 100.521C4.43817 98.9367 3.87279 97.3253 3.36236 95.6892L4.31698 95.3914C4.11697 94.7503 3.92551 94.1054 3.74274 93.4567L2.78022 93.7279C2.31946 92.0926 1.91316 90.434 1.56345 88.7543L2.54246 88.5505C2.40565 87.8933 2.27761 87.2329 2.15848 86.5693L1.17422 86.746C0.874376 85.0758 0.630215 83.3858 0.443752 81.6783L1.43784 81.5698C1.36499 80.9026 1.30107 80.2327 1.24619 79.5602L0.249502 79.6415C0.11169 77.9526 0.030203 76.2476 0.00694918 74.5282L1.00686 74.5147C1.00229 74.177 1 73.8388 1 73.5C1 73.1612 1.00229 72.823 1.00686 72.4854L0.00694887 72.4718C0.0302022 70.7525 0.111689 69.0474 0.2495 67.3585L1.24619 67.4398C1.30106 66.7673 1.36499 66.0974 1.43784 65.4303L0.443749 65.3217C0.630211 63.6142 0.874371 61.9243 1.17421 60.254L2.15848 60.4307C2.2776 59.7672 2.40564 59.1067 2.54245 58.4496L1.56344 58.2458C1.91316 56.566 2.31945 54.9074 2.78021 53.2721L3.74274 53.5433C3.92551 52.8946 4.11696 52.2497 4.31697 51.6086L3.36235 51.3108C3.87278 49.6747 4.43816 48.0633 5.05629 46.4789L5.9879 46.8424C6.23279 46.2147 6.48608 45.5913 6.74763 44.9723L5.82648 44.5831C6.49289 43.0059 7.21215 41.4572 7.98201 39.9391L8.87388 40.3914C9.1786 39.7906 9.49136 39.1946 9.81201 38.6036L8.93306 38.1267C9.74888 36.6231 10.6151 35.1516 11.5294 33.7145L12.3731 34.2513C12.7347 33.6829 13.104 33.12 13.4807 32.5627L12.6522 32.0027C13.6094 30.5865 14.6143 29.2061 15.6645 27.8637L16.4521 28.4798C16.8671 27.9493 17.2893 27.4248 17.7185 26.9065L16.9483 26.2687C18.0378 24.9531 19.1719 23.6768 20.3483 22.4421L21.0723 23.1319C21.5368 22.6443 22.008 22.1633 22.4858 21.6891L21.7813 20.9794C22.9928 19.7768 24.2457 18.617 25.5377 17.5023L26.1909 18.2594C26.7007 17.8196 27.2166 17.387 27.7385 16.9616L27.1067 16.1864C28.429 15.1087 29.7893 14.077 31.1854 13.0938L31.7612 13.9114C32.3114 13.5239 32.8673 13.144 33.4286 12.772L32.876 11.9385C34.2968 10.9966 35.7522 10.104 37.2399 9.26297L37.732 10.1335C38.3175 9.80246 38.9081 9.47954 39.5036 9.16488L39.0364 8.28073C40.5422 7.485 42.0791 6.7413 43.6446 6.05198L44.0476 6.9672C44.6627 6.69633 45.2824 6.43399 45.9064 6.18031L45.5298 5.25393C47.106 4.61315 48.7095 4.02685 50.3382 3.49736L50.6474 4.44836C51.2861 4.24068 51.9288 4.04187 52.5753 3.85206L52.2935 2.89257C53.9242 2.41378 55.5785 1.99148 57.2543 1.62788L57.4663 2.60515C58.1223 2.46283 58.7816 2.32963 59.4441 2.20569L59.2602 1.22274C60.9284 0.910659 62.6167 0.656473 64.3228 0.462318L64.4359 1.45591C65.1025 1.38005 65.7719 1.31348 66.444 1.25634L66.3593 0.259931C68.0477 0.116371 69.7525 0.0314687 71.4718 0.00724024L71.4859 1.00714C71.8234 1.00239 72.1614 1 72.5 1C72.8386 1 73.1766 1.00239 73.514 1.00714L73.5281 0.00724003C75.2475 0.0314681 76.9523 0.11637 78.6407 0.25993L78.556 1.25633C79.2281 1.31348 79.8975 1.38004 80.5641 1.4559L80.6771 0.462316C82.3833 0.656472 84.0715 0.910658 85.7398 1.22274L85.5559 2.20569C86.2184 2.32963 86.8777 2.46283 87.5337 2.60515L87.7457 1.62788C89.4215 1.99147 91.0758 2.41378 92.7065 2.89256L92.4247 3.85206C93.0712 4.04187 93.7139 4.24068 94.3526 4.44835L94.6618 3.49735C96.2905 4.02685 97.894 4.61314 99.4702 5.25393L99.0936 6.18031C99.7176 6.43399 100.337 6.69633 100.952 6.9672L101.355 6.05198C102.921 6.7413 104.458 7.485 105.964 8.28072L105.496 9.16487C106.092 9.47954 106.682 9.80245 107.268 10.1335L107.76 9.26297C109.248 10.104 110.703 10.9966 112.124 11.9385L111.571 12.772C112.133 13.144 112.689 13.5239 113.239 13.9114L113.815 13.0938C115.211 14.077 116.571 15.1087 117.893 16.1864L117.262 16.9616C117.783 17.3869 118.299 17.8196 118.809 18.2594L119.462 17.5023C120.754 18.617 122.007 19.7768 123.219 20.9794L122.514 21.6891C122.992 22.1633 123.463 22.6443 123.928 23.1319L124.652 22.4421C125.828 23.6768 126.962 24.9531 128.052 26.2687L127.281 26.9065C127.711 27.4248 128.133 27.9493 128.548 28.4798L129.336 27.8637C130.386 29.206 131.391 30.5865 132.348 32.0027L131.519 32.5627C131.896 33.12 132.265 33.6829 132.627 34.2513L133.471 33.7145C134.385 35.1516 135.251 36.6231 136.067 38.1267L135.188 38.6036C135.509 39.1946 135.821 39.7906 136.126 40.3914L137.018 39.9391C137.788 41.4572 138.507 43.0059 139.174 44.5831L138.252 44.9723C138.514 45.5913 138.767 46.2147 139.012 46.8424L139.944 46.4789C140.562 48.0633 141.127 49.6747 141.638 51.3108L140.683 51.6086C140.883 52.2497 141.074 52.8946 141.257 53.5433L142.22 53.2721C142.681 54.9074 143.087 56.566 143.437 58.2457L142.458 58.4495C142.594 59.1067 142.722 59.7671 142.842 60.4307L143.826 60.254C144.126 61.9242 144.37 63.6142 144.556 65.3217L143.562 65.4302C143.635 66.0974 143.699 66.7673 143.754 67.4398L144.751 67.3585Z" stroke="#F5811F" stroke-width="2" stroke-dasharray="2 5"/>
<path d="M97.8423 92.3327C96.4626 89.0769 94.4604 86.1195 91.9473 83.6254C89.4419 81.124 86.4739 79.1297 83.2074 77.7525C83.1781 77.7379 83.1489 77.7307 83.1196 77.7161C87.6761 74.4372 90.6382 69.0962 90.6382 63.0704C90.6382 53.0879 82.5199 45 72.5 45C62.4801 45 54.3618 53.0879 54.3618 63.0704C54.3618 69.0962 57.3239 74.4372 61.8804 77.7234C61.8511 77.7379 61.8219 77.7452 61.7926 77.7598C58.5161 79.1369 55.5759 81.1116 53.0527 83.6327C50.5419 86.1288 48.5401 89.0856 47.1577 92.34C45.7997 95.526 45.0673 98.9418 45.0002 102.403C44.9982 102.48 45.0119 102.558 45.0405 102.63C45.069 102.702 45.1118 102.768 45.1663 102.824C45.2208 102.88 45.286 102.924 45.3579 102.954C45.4299 102.984 45.5072 103 45.5853 103H49.9736C50.2954 103 50.5513 102.745 50.5587 102.432C50.7049 96.8065 52.9722 91.5384 56.9802 87.5455C61.1271 83.4141 66.6343 81.1407 72.5 81.1407C78.3657 81.1407 83.8729 83.4141 88.0198 87.5455C92.0278 91.5384 94.2951 96.8065 94.4413 102.432C94.4487 102.752 94.7046 103 95.0264 103H99.4147C99.4928 103 99.5701 102.984 99.6421 102.954C99.714 102.924 99.7792 102.88 99.8337 102.824C99.8882 102.768 99.931 102.702 99.9595 102.63C99.9881 102.558 100.002 102.48 99.9998 102.403C99.9267 98.9196 99.2026 95.5314 97.8423 92.3327ZM72.5 75.603C69.143 75.603 65.9834 74.2987 63.6064 71.9307C61.2295 69.5626 59.9203 66.4148 59.9203 63.0704C59.9203 59.7259 61.2295 56.5781 63.6064 54.21C65.9834 51.842 69.143 50.5377 72.5 50.5377C75.857 50.5377 79.0166 51.842 81.3936 54.21C83.7705 56.5781 85.0797 59.7259 85.0797 63.0704C85.0797 66.4148 83.7705 69.5626 81.3936 71.9307C79.0166 74.2987 75.857 75.603 72.5 75.603Z" fill="#FBFBFB"/>
</svg>
