<svg width="91" height="91" viewBox="0 0 91 91" fill="none" xmlns="http://www.w3.org/2000/svg">
<circle cx="45.5" cy="45.5" r="45.5" fill="#B0B0B0"/>
<path d="M58.105 35.7075H55.069C54.4088 35.7075 53.7809 36.0247 53.3925 36.5685L43.2166 50.6801L38.6076 44.2845C38.2192 43.7473 37.5978 43.4236 36.9311 43.4236H33.8951C33.4744 43.4236 33.2284 43.9026 33.4744 44.2457L41.54 55.4314C41.7305 55.6973 41.9817 55.914 42.2727 56.0635C42.5637 56.213 42.8862 56.291 43.2133 56.291C43.5405 56.291 43.8629 56.213 44.1539 56.0635C44.4449 55.914 44.6961 55.6973 44.8867 55.4314L58.5193 36.5296C58.7717 36.1865 58.5257 35.7075 58.105 35.7075Z" fill="#FBFBFB"/>
<path d="M46 17C29.9853 17 17 29.9853 17 46C17 62.0147 29.9853 75 46 75C62.0147 75 75 62.0147 75 46C75 29.9853 62.0147 17 46 17ZM46 70.0804C32.704 70.0804 21.9196 59.296 21.9196 46C21.9196 32.704 32.704 21.9196 46 21.9196C59.296 21.9196 70.0804 32.704 70.0804 46C70.0804 59.296 59.296 70.0804 46 70.0804Z" fill="#FBFBFB"/>
</svg>
