<svg width="29" height="29" viewBox="0 0 29 29" fill="none" xmlns="http://www.w3.org/2000/svg">
<path d="M27.2074 15.2508C27.798 14.4703 28.125 13.5141 28.125 12.5192C28.125 10.9407 27.2426 9.44651 25.8223 8.61331C25.4566 8.39884 25.0403 8.28596 24.6164 8.28635H16.1859L16.3969 3.96565C16.4461 2.92151 16.077 1.9301 15.3598 1.17424C15.0078 0.801687 14.5832 0.505267 14.1121 0.303302C13.6411 0.101337 13.1336 -0.00188091 12.6211 2.59459e-05C10.793 2.59459e-05 9.17578 1.23049 8.69063 2.99182L5.6707 13.9254H1.125C0.502734 13.9254 0 14.4282 0 15.0504V27.8473C0 28.4696 0.502734 28.9723 1.125 28.9723H22.2645C22.5879 28.9723 22.9043 28.909 23.1961 28.7824C24.8695 28.0688 25.9488 26.434 25.9488 24.6199C25.9488 24.177 25.8855 23.741 25.759 23.3192C26.3496 22.5387 26.6766 21.5824 26.6766 20.5875C26.6766 20.1446 26.6133 19.7086 26.4867 19.2867C27.0773 18.5063 27.4043 17.55 27.4043 16.5551C27.3973 16.1121 27.334 15.6727 27.2074 15.2508ZM2.53125 26.441V16.4567H5.37891V26.441H2.53125ZM24.9047 14.0309L24.1348 14.6989L24.6234 15.5918C24.7844 15.886 24.8679 16.2163 24.866 16.5516C24.866 17.1317 24.6129 17.6836 24.177 18.0633L23.407 18.7313L23.8957 19.6242C24.0567 19.9184 24.1402 20.2487 24.1383 20.584C24.1383 21.1641 23.8852 21.716 23.4492 22.0957L22.6793 22.7637L23.168 23.6567C23.329 23.9508 23.4124 24.2811 23.4105 24.6164C23.4105 25.4039 22.9465 26.1141 22.2293 26.4375H7.62891V16.3442L11.127 3.67034C11.2172 3.3455 11.4108 3.05891 11.6785 2.854C11.9462 2.64909 12.2734 2.53703 12.6105 2.53479C12.8777 2.53479 13.1414 2.61214 13.3523 2.77034C13.7004 3.03049 13.8867 3.42424 13.8656 3.8426L13.5281 10.8176H24.5813C25.207 11.2008 25.5938 11.8477 25.5938 12.5192C25.5938 13.0992 25.3406 13.6477 24.9047 14.0309Z" fill="#262626"/>
</svg>
