<svg width="95" height="95" viewBox="0 0 95 95" fill="none" xmlns="http://www.w3.org/2000/svg">
<circle cx="47.5" cy="47.5" r="47.5" fill="#B0B0B0"/>
<path d="M56.1423 68.7144C58.4303 68.7144 60.2851 66.8596 60.2851 64.5716C60.2851 62.2836 58.4303 60.4288 56.1423 60.4288C53.8543 60.4288 51.9995 62.2836 51.9995 64.5716C51.9995 66.8596 53.8543 68.7144 56.1423 68.7144Z" fill="#FBFBFB"/>
<path d="M72.2517 63.4925C70.9718 60.2319 68.7633 57.4185 65.8997 55.4011C63.0362 53.3837 59.6436 52.251 56.1425 52.1433C52.6413 52.251 49.2487 53.3837 46.3852 55.4011C43.5217 57.4185 41.3131 60.2319 40.0332 63.4925L39.5713 64.5717L40.0332 65.6509C41.3131 68.9115 43.5217 71.7249 46.3852 73.7423C49.2487 75.7597 52.6413 76.8924 56.1425 77.0001C59.6436 76.8924 63.0362 75.7597 65.8997 73.7423C68.7633 71.7249 70.9718 68.9115 72.2517 65.6509L72.7136 64.5717L72.2517 63.4925ZM56.1425 72.8573C54.5037 72.8573 52.9018 72.3713 51.5392 71.4609C50.1767 70.5505 49.1147 69.2564 48.4876 67.7424C47.8605 66.2285 47.6964 64.5625 48.0161 62.9553C48.3358 61.348 49.1249 59.8717 50.2837 58.7129C51.4424 57.5541 52.9188 56.765 54.526 56.4453C56.1333 56.1256 57.7992 56.2897 59.3132 56.9168C60.8272 57.5439 62.1212 58.6059 63.0317 59.9685C63.9421 61.331 64.428 62.933 64.428 64.5717C64.4253 66.7683 63.5515 68.8742 61.9982 70.4275C60.445 71.9807 58.3391 72.8545 56.1425 72.8573Z" fill="#FBFBFB"/>
<path d="M35.4284 72.857H27.1428V23.1435H43.714V35.5719C43.7172 36.6696 44.1548 37.7214 44.931 38.4977C45.7072 39.2739 46.759 39.7114 47.8568 39.7147H60.2851V48.0003H64.4279V35.5719C64.4352 35.2996 64.3835 35.0291 64.2762 34.7788C64.1689 34.5284 64.0087 34.3043 63.8065 34.1219L49.3067 19.6221C49.1244 19.4198 48.9003 19.2595 48.65 19.1522C48.3996 19.045 48.129 18.9933 47.8568 19.0007H27.1428C26.0451 19.004 24.9932 19.4415 24.217 20.2177C23.4408 20.9939 23.0033 22.0458 23 23.1435V72.857C23.0033 73.9547 23.4408 75.0066 24.217 75.7828C24.9932 76.559 26.0451 76.9965 27.1428 76.9998H35.4284V72.857ZM47.8568 23.9721L59.4566 35.5719H47.8568V23.9721Z" fill="#FBFBFB"/>
</svg>
