<svg width="34" height="35" viewBox="0 0 34 35" fill="none" xmlns="http://www.w3.org/2000/svg">
<path d="M33.4414 31.6648L27.0213 25.0753C29.0927 22.3587 30.2167 19.004 30.2125 15.5506C30.2125 12.4749 29.3265 9.4684 27.6666 6.91113C26.0067 4.35386 23.6475 2.36071 20.8872 1.18372C18.1269 0.00673776 15.0895 -0.301215 12.1592 0.298806C9.22884 0.898827 6.53717 2.37987 4.42452 4.55466C2.31188 6.72944 0.873147 9.50028 0.290269 12.5168C-0.292609 15.5333 0.00654525 18.66 1.1499 21.5015C2.29326 24.343 4.22946 26.7716 6.71367 28.4804C9.19788 30.1891 12.1185 31.1011 15.1062 31.1011C18.4611 31.1054 21.7199 29.9484 24.3588 27.816L30.7601 34.425C30.9356 34.6072 31.1445 34.7518 31.3746 34.8505C31.6047 34.9492 31.8515 35 32.1008 35C32.35 35 32.5969 34.9492 32.827 34.8505C33.0571 34.7518 33.2659 34.6072 33.4414 34.425C33.6184 34.2443 33.7589 34.0293 33.8548 33.7925C33.9506 33.5556 34 33.3015 34 33.0449C34 32.7883 33.9506 32.5342 33.8548 32.2974C33.7589 32.0605 33.6184 31.8455 33.4414 31.6648ZM3.77657 15.5506C3.77657 13.2438 4.44104 10.9889 5.68596 9.07099C6.93088 7.15303 8.70034 5.65817 10.7706 4.77543C12.8408 3.89269 15.1188 3.66173 17.3166 4.11174C19.5143 4.56176 21.5331 5.67254 23.1175 7.30363C24.702 8.93472 25.7811 11.0128 26.2182 13.2752C26.6554 15.5376 26.431 17.8826 25.5735 20.0138C24.716 22.1449 23.2638 23.9664 21.4007 25.2479C19.5375 26.5294 17.347 27.2135 15.1062 27.2135C12.1014 27.2135 9.21968 25.9847 7.09495 23.7975C4.97023 21.6103 3.77657 18.6437 3.77657 15.5506Z" fill="#262626"/>
</svg>
